<?xml version="1.0" encoding="utf-8"?>
<!-- Generator: Adobe Illustrator 22.1.0, SVG Export Plug-In . SVG Version: 6.00 Build 0)  -->
<svg version="1.1" id="Calque_1" xmlns="http://www.w3.org/2000/svg" xmlns:xlink="http://www.w3.org/1999/xlink" x="0px" y="0px"
	 viewBox="0 0 1280 1024" style="enable-background:new 0 0 1280 1024;" xml:space="preserve">
<style type="text/css">
	.st0{fill:none;stroke:#000000;stroke-width:11;stroke-miterlimit:10;}
	.st1{fill:none;stroke:#FFFFFF;stroke-width:5;stroke-miterlimit:10;}
</style>
<g>
	<path d="M360.5,394.7c0.7,0.7,1,1.5,1,2.6c0,1.7-0.5,3.3-1.5,4.6c-1,1.3-2.6,2-4.9,2.1c-5.3,0.1-10.1-0.3-14.2-1.2
		c-4.7,9.9-10.5,18.2-17.2,24.8c-6.7,6.6-13.4,9.9-20.1,9.9c-6.9,0-12.1-4-15.5-12.1c-3.4-8.1-5.1-19-5.1-32.7
		c0-11.7,0.8-22.3,2.5-31.6c0.6-3.5,1.5-5.8,2.6-7.1c1.1-1.2,3-1.8,5.6-1.8c4.4,0,6.6,1.9,6.6,5.7c0,0.4-0.1,1.1-0.2,2.2
		c-2,12-3,22.9-3,32.6c0,10.2,0.9,17.9,2.6,23.3c1.7,5.3,4.3,7.9,7.6,7.9c3.5,0,7.2-2.4,11.3-7.2c4.1-4.8,7.8-10.8,11.2-18.1
		c-4.1-2.5-7.1-5.8-9.2-9.9c-2.1-4-3.1-8.7-3.1-14c0-5.3,0.8-9.7,2.5-13.3c1.6-3.6,3.9-6.4,6.7-8.2c2.8-1.8,6-2.7,9.4-2.7
		c4.3,0,7.6,1.5,10.1,4.6c2.5,3.1,3.8,7.3,3.8,12.6c0,7.7-1.7,16-5,25.1c3.5,0.6,7.6,0.9,12.1,0.9
		C358.6,393.7,359.8,394,360.5,394.7z M333.9,388.5c2.6-7.5,3.9-13.6,3.9-18.5c0-2.8-0.4-4.9-1.1-6.1c-0.7-1.3-1.7-2-3-2
		c-1.8,0-3.3,1-4.4,3.1c-1.1,2.1-1.7,5.1-1.7,9C327.6,380.5,329.7,385.3,333.9,388.5z"/>
	<path d="M354.7,432.8c-2-3.1-2.9-7.1-2.9-12.2c0-3,0.4-6.9,1.1-11.6c0.8-4.7,1.8-9.1,2.9-13.1c0.6-2.1,1.4-3.6,2.4-4.4
		c1-0.8,2.6-1.2,4.8-1.2c3.4,0,5.1,1.1,5.1,3.4c0,1.7-0.6,5.5-1.9,11.6c-1.6,7.3-2.4,12.3-2.4,14.9c0,2,0.3,3.5,0.8,4.6
		c0.5,1.1,1.4,1.6,2.7,1.6c1.2,0,2.7-0.8,4.5-2.5c1.8-1.7,4.2-4.3,7.2-7.9c0.8-0.9,1.7-1.4,2.7-1.4c0.9,0,1.5,0.4,2,1.2
		c0.5,0.8,0.8,1.9,0.8,3.3c0,2.7-0.6,4.7-1.9,6.2c-6.6,8.1-12.8,12.1-18.5,12.1C359.8,437.4,356.6,435.8,354.7,432.8z M358.6,381.7
		c-1.4-1.3-2.1-3.1-2.1-5.5c0-2.3,0.9-4.3,2.8-5.9c1.8-1.6,4.1-2.3,6.9-2.3c2.5,0,4.5,0.6,6,1.8c1.5,1.2,2.3,2.9,2.3,5.1
		c0,2.7-0.9,4.8-2.6,6.4c-1.7,1.6-4,2.3-6.9,2.3C362.1,383.7,360,383,358.6,381.7z"/>
	<path d="M423.1,415.8c0.5,0.8,0.8,1.9,0.8,3.3c0,2.7-0.6,4.7-1.9,6.2c-2.5,3-6,5.8-10.4,8.3c-4.5,2.5-9.3,3.8-14.5,3.8
		c-7,0-12.4-1.9-16.3-5.7c-3.9-3.8-5.8-9-5.8-15.6c0-4.6,1-8.9,2.9-12.9c1.9-4,4.6-7.1,8-9.5c3.4-2.3,7.3-3.5,11.6-3.5
		c3.9,0,7,1.1,9.3,3.5c2.3,2.3,3.5,5.4,3.5,9.4c0,4.6-1.7,8.5-5,11.8c-3.3,3.3-8.9,5.9-16.8,7.9c1.7,3.1,4.8,4.6,9.5,4.6
		c3,0,6.4-1,10.3-3.1c3.8-2.1,7.2-4.9,10-8.3c0.8-0.9,1.7-1.4,2.7-1.4C421.9,414.6,422.6,415,423.1,415.8z M389.6,404.4
		c-1.7,2.9-2.6,6.3-2.6,10.4v0.2c3.9-0.9,7-2.3,9.3-4.2c2.3-1.9,3.4-4,3.4-6.5c0-1.3-0.4-2.3-1.1-3c-0.7-0.8-1.6-1.1-2.8-1.1
		C393.3,400.1,391.3,401.5,389.6,404.4z"/>
	<path d="M417.4,433.4c-1-2.7-1.5-6.9-1.5-12.8c0-8.7,1.2-16.9,3.7-24.7c0.6-1.9,1.6-3.4,3-4.3c1.4-0.9,3.3-1.4,5.8-1.4
		c1.3,0,2.3,0.2,2.8,0.5c0.5,0.3,0.8,1,0.8,1.9c0,1.1-0.5,3.5-1.5,7.2c-0.7,2.7-1.2,5-1.6,7c-0.4,2-0.7,4.5-1,7.4
		c2.2-5.7,4.7-10.4,7.4-14s5.4-6.2,8.1-7.7c2.6-1.5,5.1-2.3,7.3-2.3c4.3,0,6.5,2.2,6.5,6.5c0,2.6-0.7,7.3-2.2,14.1
		c-1.3,5.8-1.9,9.6-1.9,11.5c0,2.7,1,4,2.9,4c1.3,0,2.9-0.8,4.8-2.5c1.8-1.6,4.3-4.3,7.3-7.9c0.8-0.9,1.7-1.4,2.7-1.4
		c0.9,0,1.6,0.4,2.1,1.2c0.5,0.8,0.8,1.9,0.8,3.3c0,2.7-0.6,4.7-1.9,6.2c-2.9,3.5-5.9,6.4-9.3,8.7c-3.3,2.3-7.1,3.4-11.3,3.4
		c-3.4,0-6-1-7.7-3c-1.7-2-2.6-4.8-2.6-8.5c0-1.9,0.5-5.2,1.4-10c0.9-4.2,1.3-7.1,1.3-8.7c0-1.1-0.4-1.6-1.1-1.6
		c-0.9,0-2.1,1.1-3.7,3.3c-1.6,2.2-3.2,5.2-4.8,8.9c-1.6,3.7-2.9,7.5-3.9,11.6c-0.7,3.1-1.6,5.3-2.6,6.4s-2.5,1.6-4.5,1.6
		C420.3,437.4,418.5,436,417.4,433.4z"/>
	<path d="M475.9,437.2c-1.8-1.6-2.8-3.4-2.8-5.4c0-1.7,0.6-3.2,1.9-4.5c1.3-1.3,3.1-1.9,5.6-1.9c0.9,0,1.9,0.1,3,0.3
		c1.2,0.2,2,0.3,2.7,0.4c-0.1-1.7-0.5-3.4-1.2-4.9c-0.7-1.5-1.6-3-2.7-4.5c-1.1-1.4-2.1-2.7-3-3.8c-2.1,3.9-4.1,7.2-6.1,9.8
		c-2,2.6-4.3,5.1-6.7,7.4c-1.2,1.2-2.5,1.8-3.8,1.8c-1.1,0-1.9-0.4-2.6-1.1c-0.7-0.8-1-1.7-1-2.9c0-1.3,0.5-2.6,1.4-3.7l1.3-1.6
		c3.7-4.5,6.4-8.3,8.3-11.2c1.2-1.9,2.4-4.2,3.6-6.9c1.2-2.7,2.9-6.3,4.9-10.9c1.3-2.9,3.9-4.4,7.9-4.4c1.9,0,3.2,0.2,3.9,0.5
		c0.7,0.3,1.1,0.9,1.1,1.6c0,0.4-0.1,1-0.4,1.9c-0.3,0.9-0.6,1.7-1.1,2.6c-1.2,2.4-1.8,4.4-1.8,6.1c0,1,0.3,2.1,1,3.3
		c0.7,1.2,1.8,2.7,3.3,4.5c2.1,2.8,3.8,5.2,4.9,7.2c1.1,2,1.6,4.1,1.6,6.4c0,2.8-0.6,5.5-2,8c-1.3,2.5-3.1,4.5-5.4,6
		c-2.3,1.5-5,2.3-8,2.3C480.4,439.6,477.8,438.8,475.9,437.2z"/>
</g>
<g>
	<g>
		<path d="M349.3,529.4c-5.3-3.4-8-8.5-8-15.5c0-3.7,0.6-6.5,1.9-8.4c1.3-1.9,3.1-2.9,5.6-2.9c1.8,0,3.3,0.5,4.4,1.4
			c1.1,0.9,1.7,2.1,1.7,3.6c0,1.3-0.1,2.5-0.3,3.5c0,0.3-0.1,0.7-0.2,1.4c-0.1,0.7-0.1,1.4-0.1,2.1c0,3,1.5,5.2,4.6,6.7
			c3,1.5,7.3,2.2,12.8,2.2c5.7,0,10.1-1,13.3-3.1c3.2-2,4.8-4.9,4.8-8.5c0-2.3-0.7-4.2-2.2-5.8c-1.5-1.6-3.3-3-5.5-4.1
			c-2.2-1.1-5.3-2.4-9.3-4c-5.1-2-9.3-3.9-12.5-5.7c-3.2-1.8-6-4.3-8.3-7.3c-2.3-3.1-3.5-7-3.5-11.5c0-4.8,1.3-9.1,3.9-12.8
			c2.6-3.7,6.3-6.6,11.1-8.7c4.8-2.1,10.5-3.1,17-3.1c4.9,0,9.3,0.7,13.4,2.1c4.1,1.4,7.3,3.6,9.8,6.5c2.4,2.9,3.6,6.5,3.6,10.8
			c0,4.2-0.6,7.4-1.9,9.5c-1.3,2.1-3.1,3.2-5.6,3.2c-1.7,0-3.2-0.5-4.3-1.6c-1.2-1.1-1.8-2.3-1.8-3.8c0-1.3,0.1-2.4,0.3-3.5
			c0.2-2,0.3-3.3,0.3-3.8c0-2.8-1.4-4.9-4.1-6.4c-2.7-1.5-6.1-2.2-10.2-2.2c-5.7,0-10.1,1-13.1,3.1c-3,2.1-4.6,5.1-4.6,8.9
			c0,2.5,0.8,4.7,2.4,6.5c1.6,1.8,3.5,3.3,5.9,4.5c2.3,1.2,5.6,2.6,9.8,4.3c5.1,2.1,9.1,3.9,12.2,5.6c3.1,1.7,5.7,3.9,7.9,6.8
			c2.2,2.9,3.3,6.4,3.3,10.6c0,7.9-3,13.9-9,18.2c-6,4.2-13.9,6.3-23.9,6.3C361.8,534.4,354.7,532.7,349.3,529.4z"/>
		<g>
			<path d="M349.7,529.2c-6.1-4-8.5-10.8-7.8-17.9c0.2-1.7,0.5-3.5,1.3-5c1.6-3,5.3-4.5,8.5-2.8c3.6,1.9,2.6,5.8,2.2,9.1
				c-0.3,2.9,0,5.5,2.3,7.5c2,1.7,4.8,2.5,7.4,3c6.1,1.1,13.2,1.2,19-1.2c5.2-2.1,9.1-7.4,7-13.2c-2.3-6-10.3-8.4-15.6-10.6
				c-7.1-2.9-14.9-5.6-20.2-11.5c-5.3-6-6.4-14.6-3.4-22c6.6-16.2,30.4-19.1,44.7-12.9c7.5,3.2,11.7,9.7,11.5,17.8
				c-0.1,3.3-0.6,8.1-3.6,10.1c-2.7,1.7-6.5,1.2-8.2-1.6c-1.2-1.9-0.7-4.4-0.4-6.5c0.3-2.4,0.6-5-0.8-7.1c-1.6-2.5-4.7-3.7-7.4-4.3
				c-5.6-1.3-12.5-1-17.7,1.4c-5.5,2.6-8.7,9-5.7,14.8c3,5.9,10.9,8.3,16.6,10.6c7,2.8,14.7,5.6,19.7,11.6c4.8,5.7,5.1,14.3,2.2,21
				c-6.5,15-28.1,16.7-41.9,13.6C356,532.3,352.7,531,349.7,529.2c-0.2-0.1-1.2,0.1-0.8,0.3c5.9,3.6,12.9,4.9,19.8,5.1
				c7.2,0.2,14.6-0.6,21.2-3.6c5.9-2.7,11-7.2,13-13.5c2.2-7,1.3-14.7-3.7-20.2c-5.2-5.7-13.3-8.4-20.3-11.3
				c-7.1-2.9-17.2-6.6-16.1-16c1.2-10.3,15.3-11.6,23.2-9.5c4,1,7.8,3.4,7.8,7.9c0,3-1.5,6.7,0,9.6c2.7,4.9,10,3.7,12.3-0.7
				c3.1-5.9,2.2-14.8-2-19.9c-4.6-5.6-12-7.9-18.9-8.6c-7.5-0.7-15.5,0.1-22.4,3.1c-6.4,2.8-11.8,7.8-13.8,14.7
				c-2.2,7.4-0.7,15.3,4.6,21c5.4,5.8,13.4,8.4,20.6,11.3c6.7,2.8,17.3,6.6,14.8,15.9c-2.5,9.3-16.1,9.3-23.6,8.2
				c-3.8-0.6-8.8-1.9-10.2-6.1c-1-3.2,0.5-6.4,0.2-9.6c-0.5-5.5-8.5-6.1-11.8-2.8c-4.3,4.3-3.4,13.4-0.9,18.4c1.4,2.8,3.6,5,6.2,6.7
				C349.1,529.7,350.1,529.4,349.7,529.2z"/>
		</g>
	</g>
	<g>
		<path d="M429.8,567c-2-4.4-2.9-9.7-2.9-15.9c0-7.8,0.9-15.5,2.6-23.1c-2.3,3.5-5.2,5.2-8.9,5.2c-3.7,0-6.7-1.5-9.1-4.6
			c-2.4-3.1-3.6-7-3.6-11.9c0-5.3,1.3-10.3,3.8-15c2.5-4.7,5.8-8.5,10-11.5c4.2-2.9,8.6-4.3,13.4-4.3c1.6,0,2.8,0.5,3.7,1.6
			c0.6-2.1,1.5-3.6,2.7-4.3c1.2-0.7,2.9-1.1,5-1.1c2.3,0,3.8,0.3,4.5,1c0.8,0.7,1.1,1.6,1.1,2.9c0,0.8-0.4,2.7-1.3,5.5
			c-0.8,2.9-1.4,4.8-1.6,5.8c-1.1,3.7-2.2,7.9-3.5,12.4c-1.2,4.5-2.2,8.7-3,12.4c-2.1,10.7-3.2,20.1-3.2,28.3c0,3.1,0.3,5.7,0.8,7.8
			C440.6,560.3,431.7,571.3,429.8,567z M427.9,520.2c1.4-1.9,2.4-4.2,3-6.8l4.3-18.2c-2.9,0.1-5.6,1.1-8,3.1c-2.4,2-4.4,4.7-5.8,8
			c-1.4,3.3-2.1,6.8-2.1,10.5c0,2.1,0.4,3.7,1.1,4.8c0.8,1.1,1.8,1.7,3.1,1.7C425.1,523,426.5,522.1,427.9,520.2z"/>
		<g>
			<path d="M430.3,567c-2.5-5.8-3.1-12.1-2.9-18.3c0.2-7,1.1-13.9,2.6-20.7c0.1-0.3-0.8-0.3-1-0.1c-1.8,2.6-4.1,4.6-7.3,5
				c-4.2,0.5-7.8-1.6-10.2-4.9c-3.5-4.8-3.7-11.3-2.7-16.9c1.1-6.2,4.1-12.1,8.4-16.6c2.2-2.4,4.9-4.4,7.8-5.9
				c3.3-1.7,10.2-4.2,13.2-1c0.2,0.2,0.9,0.3,0.9,0c0.6-1.9,1.3-3.5,3.2-4.5c2.1-1.1,7.6-1.6,8.8,1c1.2,2.4-0.6,6.4-1.3,8.7
				c-2,6.9-4,13.9-5.8,20.9c-2,7.9-3.5,15.9-4.4,23.9c-0.4,3.8-0.7,7.5-0.7,11.3c0,1.8,0,3.6,0.1,5.4c0.1,1.3,0.7,3,0.6,4.2
				C439.4,560.8,431.9,570.1,430.3,567c-0.1-0.3-1.1-0.2-1,0c2.1,3.9,7.3-2.1,8.6-3.7c1.3-1.7,2.9-3.5,2.5-5.7
				c-0.7-4.7-0.7-9.4-0.4-14.2c0.7-10.6,2.6-21.2,5.3-31.5c1.3-4.9,2.7-9.9,4.1-14.8c1-3.5,2.6-7.2,2.8-10.9
				c0.2-3.4-2.5-4.3-5.4-4.4c-4.5-0.2-7.5,1.1-8.9,5.5c0.3,0,0.6,0,0.9,0c-3.2-3.4-9.7-1.4-13.4,0.2c-6.1,2.6-11,7.6-14.2,13.3
				c-5.1,9.1-7.6,27.4,5.1,31.9c5.3,1.8,10.3-0.1,13.4-4.6c-0.3,0-0.6-0.1-1-0.1c-1.6,7.1-2.5,14.3-2.6,21.6c-0.1,6,0.6,11.9,3,17.5
				C429.4,567.2,430.4,567.2,430.3,567z"/>
			<path d="M428.4,520.3c2.8-3.9,3.5-8.8,4.6-13.4c0.9-3.9,1.8-7.8,2.8-11.7c0-0.2-0.5-0.2-0.6-0.2c-9.2,0.5-14.8,9.2-16.1,17.6
				c-0.5,3.2-1.1,8.7,2.6,10.3C424.4,524,426.8,522.3,428.4,520.3c0.2-0.2-0.8-0.4-1-0.2c-1.5,1.8-3.8,4-6.2,1.7
				c-1.1-1.1-1.4-2.8-1.5-4.3c-0.2-3.1,0.3-6.3,1.3-9.2c2.1-6.4,7-12.6,14.3-13c-0.2-0.1-0.4-0.2-0.6-0.2c-0.9,3.7-1.8,7.5-2.7,11.2
				c-1.1,4.7-1.8,9.8-4.6,13.8C427.3,520.3,428.2,520.5,428.4,520.3z"/>
		</g>
	</g>
	<g>
		<path d="M452.9,529c-1.9-2.8-2.9-6.2-2.9-10.3c0-5,0.3-9.6,1-13.8c0.7-4.2,1.8-8.6,3.3-13.3c0.7-2,1.6-3.4,2.8-4.3
			c1.2-0.9,3.1-1.3,5.7-1.3c1.5,0,2.5,0.2,3,0.7c0.6,0.5,0.9,1.2,0.9,2.1c0,0.5-0.4,2.3-1.1,5.4c-0.7,2.5-1.2,4.7-1.6,6.7
			c-1.3,7-2,11.7-2,14c0,1.4,0.2,2.4,0.5,3c0.3,0.6,0.9,0.8,1.6,0.8c1,0,2.3-1,3.8-3s3.1-5,4.8-9.1c1.7-4.1,3.3-9.1,4.9-15
			c0.5-2,1.4-3.4,2.5-4.3c1.1-0.9,2.8-1.3,4.9-1.3c1.5,0,2.6,0.2,3.2,0.5c0.6,0.4,0.9,1,0.9,2c0,1.7-0.8,6.2-2.5,13.7
			c-1.9,8.5-2.8,13.8-2.8,15.8c0,1.3,0.3,2.3,0.8,3c0.5,0.7,1.2,1,2.1,1c1.3,0,2.9-0.8,4.8-2.5c1.8-1.6,4.3-4.3,7.4-8
			c0.8-0.9,1.7-1.4,2.7-1.4c0.9,0,1.6,0.4,2.1,1.2c0.5,0.8,0.8,1.9,0.8,3.3c0,2.7-0.6,4.7-1.9,6.2c-2.9,3.5-6,6.4-9.3,8.7
			c-3.3,2.3-7.1,3.4-11.3,3.4c-3.2,0-5.6-1.2-7.1-3.7c-1.5-2.5-2.3-5.9-2.3-10.4c-1.1,4.5-2.8,8-5.1,10.4c-2.3,2.4-4.7,3.7-7.3,3.7
			C457.2,533.1,454.8,531.7,452.9,529z"/>
		<g>
			<path d="M453.3,529c-2.8-4.2-2.9-9-2.8-13.9c0.2-4.5,0.6-9,1.6-13.5c0.5-2.2,1-4.4,1.7-6.6c0.7-2.4,1.3-5.3,3.3-7.1
				c1.5-1.4,4-1.7,6-1.6c3.6,0.2,3.3,2.2,2.8,4.7c-1.6,7.6-4,15.2-4.3,23.1c-0.1,1.8-0.1,4.2,2,4.8c2.4,0.7,4.2-2,5.3-3.7
				c4.9-7.1,6.8-15.8,9.4-23.8c0.6-2,1.6-3.9,3.7-4.6c1.1-0.4,3-0.8,4.2-0.5c0.4,0.3,0.8,0.5,1.3,0.8c1.1,0.2,1.5,0.7,1.3,1.6
				c0,0.2,0,0.5-0.1,0.7c-0.2,3.2-1.1,6.4-1.7,9.5c-0.9,4.2-1.9,8.4-2.6,12.6c-0.4,2.1-0.9,4.3-0.9,6.4c0,2.2,1.1,4.3,3.6,4.3
				c2.8,0.1,5.3-2.6,7-4.5c1.6-1.7,3.2-3.5,4.7-5.3c1.1-1.3,3.2-3.6,4.8-0.4c0.6,1.2,0.4,2.9,0.3,4.1c-0.6,4.9-5.4,8.9-9.1,11.7
				c-4.1,3.3-10.3,6.1-15.7,4.4c-5.2-1.7-5.9-8.7-5.9-13.3c0-0.2-0.9-0.5-0.9-0.3c-1,3.7-2.4,7.5-5.1,10.4
				C463.1,533.6,457.1,534.1,453.3,529c-0.2-0.2-1.1-0.4-0.9-0.1c2.5,3.5,6.7,5.4,10.9,3.9c5.6-2,8.3-8.4,9.7-13.7
				c-0.3-0.1-0.6-0.2-0.9-0.3c0,4,0.4,8.9,3.5,12c2,2,4.7,2.6,7.4,2.5c4.6-0.2,8.6-1.9,12.2-4.6c3.3-2.6,8-6.3,9.2-10.6
				c0.7-2.5,0.9-7.1-2.2-8c-1-0.3-2-0.1-2.8,0.4c-2.1,1.3-3.7,4.1-5.4,5.9c-1.2,1.3-2.5,2.7-4,3.8c-1.2,0.9-3.5,2.5-5,0.8
				c-0.7-0.8-0.8-2.3-0.8-3.3c0.1-3.2,1-6.5,1.6-9.7c1-5,2.2-9.9,3.1-14.9c0.3-1.9,1.4-5.3-0.5-6.6c-2-1.4-6-1-8,0
				c-1.7,0.8-2.6,2.4-3.2,4.1c-0.9,2.5-1.5,5.2-2.3,7.8c-1.5,4.8-3.3,9.6-5.7,14c-1,1.8-2.1,3.9-3.8,5.1c-3.3,2.4-3.2-2.1-3-4
				c0.3-4.3,1.2-8.6,2-12.9c0.5-2.6,1.2-5.1,1.8-7.6c0.3-1.3,0.8-2.8,0.8-4.2c-0.1-3.6-4.6-3.3-7.1-3c-5.3,0.7-6.4,5.6-7.7,10.1
				c-1.6,5.8-2.5,11.8-2.8,17.9c-0.2,5.3-0.2,10.5,2.8,15C452.6,529.1,453.5,529.3,453.3,529z"/>
		</g>
	</g>
	<g>
		<path d="M498.6,528.6c-2.5-3-3.7-6.9-3.7-11.8c0-5.3,1.2-10.4,3.7-15.2c2.5-4.8,5.8-8.6,9.8-11.5c4.1-2.9,8.5-4.3,13.1-4.3
			c1.5,0,2.4,0.3,2.9,0.8c0.5,0.6,0.9,1.6,1.3,3c1.4-0.3,2.9-0.4,4.4-0.4c3.3,0,4.9,1.2,4.9,3.5c0,1.4-0.5,4.7-1.5,10
			c-1.5,7.7-2.3,13-2.3,16c0,1,0.3,1.8,0.8,2.4c0.5,0.6,1.2,0.9,2,0.9c1.3,0,2.8-0.8,4.6-2.5c1.8-1.6,4.2-4.3,7.3-8
			c0.8-0.9,1.7-1.4,2.7-1.4c0.9,0,1.5,0.4,2,1.2c0.5,0.8,0.8,1.9,0.8,3.3c0,2.7-0.6,4.7-1.9,6.2c-2.7,3.4-5.6,6.3-8.7,8.6
			c-3.1,2.3-6,3.5-8.9,3.5c-2.2,0-4.2-0.8-6-2.3c-1.8-1.5-3.2-3.5-4.1-6.2c-3.5,5.6-7.8,8.4-13.1,8.4
			C504.4,533.1,501.1,531.6,498.6,528.6z M516.3,520.4c1.3-1.7,2.3-4,2.9-6.9l3.7-18.4c-2.8,0.1-5.4,1.1-7.8,3.2
			c-2.4,2-4.3,4.7-5.6,8c-1.4,3.3-2.1,6.9-2.1,10.6c0,2.1,0.4,3.6,1.3,4.6c0.8,1,2,1.5,3.5,1.5C513.6,523,515,522.2,516.3,520.4z"/>
		<g>
			<path d="M499.1,528.6c-6.2-8-3.8-20.2,0.9-28.3c2.4-4.2,5.7-7.8,9.7-10.5c2.5-1.6,5.3-2.9,8.2-3.4c1.2-0.2,2.7-0.5,3.9-0.4
				c1.4,0.2,2.4,0.5,2.9,1.8c0.3,0.6,0.4,1.2,0.6,1.8c0.1,0.2,0.6,0.3,0.8,0.3c2.4-0.4,6.4-1.2,8,1.1c0.7,0.9,0.5,2.2,0.4,3.2
				c-0.3,3.3-1,6.6-1.7,9.9c-0.7,3.4-1.3,6.8-1.7,10.2c-0.2,1.9-0.8,4.6,0.1,6.4c2.4,4.4,7.9-0.8,9.8-2.9c1.1-1.2,2.2-2.4,3.2-3.6
				c0.6-0.7,1.1-1.4,1.7-2c0.3-0.3,0.5-0.6,0.8-0.9c1.1-0.9,3-0.2,3.7,0.9c0.9,1.3,0.4,4.2,0,5.6c-0.5,2-1.9,3.5-3.3,5.1
				c-3,3.4-6.5,6.9-10.6,8.8c-3.6,1.7-7.8,1.5-10.9-1.3c-1.7-1.5-2.8-3.5-3.6-5.6c-0.1-0.2-0.8-0.4-0.9-0.2
				c-2.1,3.2-4.7,6.2-8.4,7.5C507.9,533.9,502.5,532.6,499.1,528.6c-0.2-0.2-1.1-0.3-0.9,0c3,3.5,7.3,5.1,11.9,4.7
				c5.3-0.5,9.2-4.1,12-8.4c-0.3-0.1-0.6-0.1-0.9-0.2c2.8,7.3,9.8,10.8,16.9,7.1c4.4-2.2,8.1-6.1,11.2-9.9c2.1-2.6,3.8-7.2,1.8-10.3
				c-1.2-1.8-3.6-1.8-5.2-0.5c-1.6,1.4-2.9,3.4-4.4,5c-1.3,1.4-2.6,2.9-4.1,4.1c-1.2,1-2.6,2.1-4.1,1.5c-1.5-0.6-1.5-1.9-1.5-3.4
				c0-1.6,0.3-3.2,0.5-4.8c0.6-4.6,1.6-9.2,2.4-13.8c0.4-2.3,1.9-6.8,0.1-8.9c-2.1-2.4-6.7-1.6-9.3-1.1c0.3,0.1,0.5,0.2,0.8,0.3
				c-0.5-1.9-1-3.5-3-4c-2-0.5-4.4-0.2-6.4,0.3c-5.8,1.2-10.9,4.8-14.6,9.3c-7.1,8.5-11.6,23.7-4,33.3
				C498.4,528.8,499.3,528.9,499.1,528.6z"/>
			<path d="M516.8,520.6c2.8-3.9,3.3-8.9,4.3-13.5c0.8-3.9,1.6-7.9,2.4-11.8c0-0.2-0.6-0.3-0.7-0.3c-9,0.5-14.3,9.7-15.5,17.8
				c-0.4,3.1-1,7.8,2.1,9.8C512.1,524.2,514.9,522.9,516.8,520.6c0.2-0.2-0.7-0.5-0.9-0.3c-0.5,0.6-1.1,1.3-1.8,1.8
				c-0.6,0.2-1.1,0.5-1.7,0.7c-1.1-0.4-2.2-0.8-3.3-1.2c-1.2-1.2-1.2-3.5-1.2-5c0-3.2,0.6-6.3,1.8-9.3c2.2-5.8,6.8-11.5,13.5-11.9
				c-0.2-0.1-0.5-0.2-0.7-0.3c-0.8,3.8-1.5,7.6-2.3,11.4c-0.9,4.7-1.4,10-4.3,13.9C515.7,520.5,516.6,520.8,516.8,520.6z"/>
		</g>
	</g>
	<g>
		<path d="M621.2,511.5c0.5,0.8,0.8,1.9,0.8,3.3c0,2.7-0.6,4.7-1.9,6.2c-2.9,3.5-6,6.4-9.4,8.7c-3.4,2.3-7.3,3.4-11.7,3.4
			c-8.1,0-13.8-3.4-17-10.2c-1.7,2.8-4,5.2-6.9,7.2c-2.9,2-5.9,3-9.2,3c-6.3,0-11-2.6-13.9-7.8c-3-5.2-4.5-12.2-4.5-21
			c0-3.3,0.2-6.9,0.5-10.9h-4.1c-2,0-3.4-0.4-4-1.1c-0.7-0.7-1.1-1.9-1.1-3.5c0-3.7,1.5-5.6,4.5-5.6h6.1c1.3-7.1,3-13.5,5.3-19.2
			c2.3-5.7,5-10.3,8.2-13.7c3.2-3.4,6.7-5.1,10.4-5.1c2.8,0,5,1.2,6.6,3.7c1.6,2.5,2.4,5.6,2.4,9.3c0,9.4-3.6,17.7-10.9,25h9.1
			c1.3-7.1,3-13.5,5.3-19.2c2.3-5.7,5-10.3,8.2-13.7c3.2-3.4,6.7-5.1,10.4-5.1c2.8,0,5,1.2,6.6,3.7c1.6,2.5,2.4,5.6,2.4,9.3
			c0,9.4-3.6,17.7-10.9,25h9.1c1.1,0,1.8,0.2,2.3,0.7c0.5,0.5,0.7,1.3,0.7,2.6c0,4.6-3.8,6.9-11.3,6.9h-12.1
			c-0.2,3.2-0.3,6.5-0.3,9.8c0,6.9,0.8,11.8,2.5,14.6c1.6,2.8,4.2,4.2,7.8,4.2c2.9,0,5.4-0.9,7.6-2.6c2.2-1.7,4.8-4.3,7.8-7.8
			c0.8-0.9,1.7-1.4,2.7-1.4C620,510.3,620.7,510.7,621.2,511.5z M573.9,519.3c2-1.9,3.7-4.2,5.1-6.9c-0.3-2.1-0.5-4.7-0.5-8
			c0-3.3,0.2-6.9,0.5-10.9h-19c-0.2,3.2-0.3,6.5-0.3,9.8c0,6.7,0.7,11.5,2.2,14.5c1.4,2.9,3.4,4.3,6,4.3
			C569.9,522.1,571.9,521.2,573.9,519.3z M567.2,458.7c-1.2,2.5-2.4,6-3.5,10.4c-1.1,4.4-2,9.3-2.8,14.8c3.9-3.4,6.9-7.2,8.9-11.5
			c2-4.2,2.9-8.1,2.9-11.5c0-3.9-0.7-5.9-2.2-5.9C569.5,454.9,568.4,456.2,567.2,458.7z M598.3,458.7c-1.2,2.5-2.4,6-3.5,10.4
			c-1.1,4.4-2,9.3-2.8,14.8c3.9-3.4,6.9-7.2,8.9-11.5c2-4.2,2.9-8.1,2.9-11.5c0-3.9-0.7-5.9-2.2-5.9
			C600.6,454.9,599.5,456.2,598.3,458.7z"/>
		<g>
			<path d="M620.7,511.4c2.3,4.5-0.5,8.9-3.5,12.1c-3.2,3.3-6.9,6.6-11.3,8.2c-9.1,3.3-19.2,0.2-23.5-8.7c-0.1-0.2-0.8-0.5-1-0.2
				c-3.2,4.9-8.3,9.4-14.3,10c-6,0.6-11.5-1.9-14.6-7.1c-5.6-9.4-4.9-21.6-4.1-32c0-0.3-0.6-0.4-0.8-0.4c-1.3,0-2.7,0.1-4,0
				c-1.3-0.1-3.6-0.9-4.1-2.2c-0.3-0.7-0.3-2.1-0.2-2.7c0.1-1.3,0.3-2.6,1.2-3.6c1.9-2,6.7-1.2,9.2-1.2c0,0,0.2,0,0.2-0.1
				c1.4-7.7,3.4-15.4,6.7-22.5c2.9-6.2,7.6-13.9,15-15.2c10.4-1.8,11,11.7,9.7,18.5c-1.3,7.3-5.2,13.6-10.3,18.8
				c-0.2,0.3,0.6,0.4,0.7,0.4c3,0,6.1,0,9.1,0c0,0,0.2,0,0.2-0.1c1.4-7.7,3.4-15.4,6.7-22.5c2.9-6.2,7.6-13.9,15-15.2
				c10.4-1.8,11,11.7,9.7,18.5c-1.3,7.3-5.2,13.6-10.3,18.8c-0.2,0.3,0.6,0.4,0.7,0.4c2.8,0,5.6-0.2,8.3,0c2.9,0.2,3.5,2.3,2.7,4.8
				c-0.6,2.1-2.4,3.4-4.4,4.1c-3.3,1.1-6.9,0.8-10.3,0.8c-2.7,0-5.5,0-8.2,0c0,0-0.2,0-0.2,0.1c-0.3,5.8-0.6,11.9,0.2,17.7
				c0.5,3.6,1.5,7.7,4.8,9.8c3.1,2,7.5,2,10.9,0.5c2.2-1,4-2.6,5.6-4.3C613.5,515.7,618.4,508.5,620.7,511.4
				c0.2,0.3,1.1,0.4,0.9,0.1c-2-2.5-4.5-1.3-6.3,0.7c-3.1,3.5-6.6,7.9-11.4,9.2c-14,3.8-12.9-15.5-12.6-23.8c0-0.4-0.2-3.6,0-3.9
				c0.1-0.1,0.6,0,0.7,0c1.1-0.3,2.5,0,3.6,0c2.5,0,5,0,7.5,0c2.9,0,6.1-0.2,8.6-1.6c2.4-1.4,3.9-4.5,2.8-7.2
				c-0.8-2-3.2-1.8-4.9-1.8c-2.6,0-5.1,0-7.7,0c0.2,0.1,0.5,0.3,0.7,0.4c5.5-5.6,9.6-12.5,10.6-20.4c0.8-5.9,0.4-14.8-6.1-17.4
				c-6.3-2.5-12.4,2.3-16,7c-5.1,6.6-7.8,14.9-9.8,22.9c-0.3,1.3-0.6,2.6-0.9,3.9c-0.1,0.5-0.3,3.3-0.6,3.5c-0.4,0.3-2.1,0-2.6,0
				c-2.1,0-4.3,0-6.4,0c0.2,0.1,0.5,0.3,0.7,0.4c7-7.1,11.6-16.6,10.9-26.8c-0.3-3.9-1.7-8.5-5.4-10.6c-3-1.7-6.8-1.2-9.8,0.2
				c-8.8,4.3-13.1,15.9-15.7,24.6c-0.8,2.8-1.6,5.7-2.2,8.5c-0.1,0.6-0.4,3.4-0.7,3.5c-0.3,0.2-1.3,0-1.7,0c-2.2,0-5.4-0.6-7.3,0.9
				c-2.3,1.9-2.5,7.5,0.3,9c2.3,1.2,5.5,0.7,8,0.7c-0.3-0.1-0.5-0.3-0.8-0.4c-0.6,7.1-0.9,14.3,0.3,21.3c0.9,5.3,2.8,11,6.9,14.7
				c3.5,3.2,8.5,4.4,13.1,3.9c6.2-0.6,11.4-5.1,14.7-10.2c-0.3-0.1-0.6-0.2-1-0.2c4,8.2,12.4,11.6,21.2,10.3c5.6-0.8,10.3-4,14.3-8
				c3.5-3.4,7.5-8.4,4.7-13.5C621.5,511.3,620.6,511.2,620.7,511.4z"/>
			<path d="M574.4,519.5c1.4-1.4,2.6-2.8,3.7-4.5c0.4-0.7,1.3-1.7,1.4-2.5c0.2-0.9-0.3-2.3-0.3-3.2c-0.4-5.2-0.1-10.5,0.3-15.7
				c0-0.3-0.6-0.4-0.8-0.4c-6.3,0-12.7,0-19,0c0,0-0.2,0-0.2,0.1c-0.3,4.5-0.4,9-0.2,13.5c0.2,3.5,0.4,7.2,1.9,10.4
				C563.8,523.2,569.8,523.6,574.4,519.5c0.2-0.2-0.7-0.6-0.9-0.4c-1.5,1.3-3.2,2.5-5.2,2.7c-3.2,0.3-5.1-2-6.2-4.6
				c-1-2.3-1.3-4.9-1.6-7.3c-0.4-3.9-0.3-7.9-0.2-11.8c0-0.6-0.2-4,0.1-4.3c0.1-0.1,0.8,0,0.9,0c6,0,12,0,18,0
				c-0.3-0.1-0.5-0.3-0.8-0.4c-0.4,4.4-0.6,8.9-0.5,13.3c0.1,2.1,0.8,4.7-0.1,6.7c-1,2.2-2.8,4.1-4.5,5.8
				C573.3,519.3,574.2,519.7,574.4,519.5z"/>
			<path d="M566.7,458.5c-3.7,7.7-5.1,16.7-6.3,25.2c0,0.3,0.7,0.5,0.9,0.3c6.5-5.7,11.8-14.1,11.8-23c0-1.9,0.1-5.2-1.9-6.1
				C569,453.9,567.5,456.9,566.7,458.5c-0.1,0.2,0.8,0.6,1,0.3c0.7-1.4,1.4-3.5,3.1-3c1.4,0.4,1.3,1.9,1.4,3.2
				c0.2,3.1-0.3,6.1-1.3,9.1c-2,6.1-5.7,11.3-10.5,15.5c0.3,0.1,0.6,0.2,0.9,0.3c1.2-8.4,2.5-17.4,6.3-25.2
				C567.8,458.6,566.8,458.2,566.7,458.5z"/>
			<path d="M597.8,458.5c-3.7,7.7-5.1,16.7-6.3,25.2c0,0.3,0.7,0.5,0.9,0.3c6.5-5.7,11.8-14.1,11.8-23c0-1.9,0.1-5.2-1.9-6.1
				C600.1,453.9,598.6,456.9,597.8,458.5c-0.1,0.2,0.8,0.6,1,0.3c0.7-1.4,1.4-3.5,3.1-3c1.4,0.4,1.3,1.9,1.4,3.2
				c0.2,3.1-0.3,6.1-1.3,9.1c-2,6.1-5.7,11.3-10.5,15.5c0.3,0.1,0.6,0.2,0.9,0.3c1.2-8.4,2.5-17.4,6.3-25.2
				C598.9,458.6,597.9,458.2,597.8,458.5z"/>
		</g>
	</g>
	<g>
		<path d="M660.5,511.5c0.5,0.8,0.8,1.9,0.8,3.3c0,2.7-0.6,4.7-1.9,6.2c-2.5,3-5.9,5.8-10.4,8.3c-4.5,2.5-9.3,3.8-14.5,3.8
			c-7,0-12.4-1.9-16.3-5.7c-3.9-3.8-5.8-9-5.8-15.6c0-4.6,1-8.9,2.9-12.9c1.9-4,4.6-7.1,8-9.4c3.4-2.3,7.3-3.5,11.6-3.5
			c3.9,0,7,1.1,9.3,3.4c2.3,2.3,3.5,5.4,3.5,9.4c0,4.6-1.7,8.5-4.9,11.8c-3.3,3.3-8.9,5.9-16.8,7.9c1.7,3.1,4.8,4.6,9.5,4.6
			c3,0,6.4-1,10.3-3.2c3.8-2.1,7.2-4.8,9.9-8.3c0.8-0.9,1.7-1.4,2.7-1.4C659.3,510.3,660,510.7,660.5,511.5z M627,500.1
			c-1.7,2.9-2.6,6.3-2.6,10.4v0.2c3.9-0.9,7-2.3,9.3-4.2c2.3-1.9,3.4-4,3.4-6.5c0-1.3-0.3-2.3-1.1-3.1c-0.7-0.8-1.6-1.1-2.8-1.1
			C630.8,495.8,628.7,497.3,627,500.1z"/>
		<g>
			<path d="M660,511.5c2.5,4.7-0.7,9.4-4.1,12.5c-4,3.6-9.1,6.6-14.3,8c-10.3,2.7-22.9-0.3-27.2-11c-3.7-9.5-1-21.9,6.4-29
				c4.5-4.3,10.9-6.8,17.2-5.5c5.7,1.1,9.1,5.9,9.3,11.5c0.5,12.6-11.2,17.8-21.5,20.4c-0.1,0-0.2,0.1-0.1,0.2
				c2.7,4.7,8.7,5.5,13.7,4.4c3.5-0.8,6.8-2.5,9.8-4.5c1.4-0.9,2.6-1.9,3.9-3C654.2,514.1,657.8,508.7,660,511.5
				c0.2,0.2,1.1,0.1,1,0c-1-1.3-2.5-1.7-4.1-1.1c-1.3,0.5-2.1,1.8-3,2.8c-1.5,1.7-3.3,3.2-5.1,4.5c-3.5,2.5-7.8,4.8-12.1,5.2
				c-2.3,0.2-4.8,0-6.9-1.1c-0.7-0.4-2.2-1.4-2.6-2.2c-0.5-1.2,0.8-1.2,1.8-1.5c5.9-1.7,12.3-4.2,16.1-9.4
				c3.8-5.2,4.6-13.6,0.1-18.7c-4-4.4-10.6-4.8-16-3.4c-7.1,1.8-12.4,7.4-15.2,14c-2.8,6.7-3.2,15.2,0,21.8
				c2.7,5.6,7.9,9.1,13.8,10.3c7.6,1.6,15.6,0.3,22.3-3.7c5.6-3.2,14.9-9.8,10.9-17.5C660.8,511.2,659.9,511.3,660,511.5z"/>
			<path d="M626.5,500c-1.8,3.3-2.6,6.9-2.6,10.7c0,0.3,0.7,0.2,0.8,0.2c5.2-1.3,14.7-5.1,12.7-12.3c-0.6-2.2-2.5-3.1-4.6-3
				C629.9,495.8,628,497.7,626.5,500c-0.2,0.2,0.8,0.4,1,0.2c0.5-0.9,1.1-1.7,1.8-2.4c0.6-0.6,1.2-1.1,2-1.3
				c1.1-0.4,3.4-0.2,4.3,0.6c1.7,1.6,1.1,4.8,0.1,6.6c-2.3,4-7.3,5.8-11.6,6.9c0.3,0.1,0.6,0.1,0.8,0.2c0-3.7,0.7-7.3,2.5-10.5
				C627.6,499.9,626.6,499.8,626.5,500z"/>
		</g>
	</g>
	<g>
		<path d="M680.8,505.1c0.1-1.1,0.2-1.8,0.2-2.2c0-0.5-0.1-0.9-0.4-1.2c-0.2-0.3-0.5-0.4-0.8-0.4c-0.9,0-2.2,1.1-3.8,3.3
			c-1.6,2.2-3.2,5.2-4.8,8.9c-1.6,3.7-2.9,7.5-3.9,11.6c-0.7,3.2-1.6,5.3-2.5,6.4c-0.9,1.1-2.5,1.6-4.6,1.6c-2.5,0-4.3-1.3-5.4-4
			c-1-2.7-1.5-6.9-1.5-12.8c0-8.7,1.2-16.9,3.7-24.7c0.6-1.9,1.6-3.3,3-4.3c1.4-0.9,3.3-1.3,5.8-1.3c1.3,0,2.3,0.2,2.8,0.5
			c0.5,0.3,0.8,1,0.8,1.9c0,1.1-0.5,3.5-1.5,7.2c-0.7,2.7-1.2,5-1.6,7c-0.4,2-0.7,4.5-1,7.4c2.2-5.7,4.7-10.4,7.4-14
			c2.7-3.6,5.4-6.2,8-7.7c2.6-1.5,5-2.3,7.1-2.3c1.9,0,3.4,0.5,4.4,1.6c1,1.1,1.6,2.7,1.6,4.9c0,1.3-0.4,3.7-1.1,7.2
			C692.6,499.7,680.7,506.6,680.8,505.1z"/>
		<g>
			<path d="M681.3,505c0.2-1.7,0.5-4.4-2-3.8c-2.4,0.5-4.1,3.9-5.3,5.8c-2.3,3.8-4.1,8-5.5,12.2c-0.7,2-1.2,3.9-1.7,5.9
				c-0.5,1.9-0.9,4.4-2.2,6c-1.9,2.3-6,2.4-8,0.1c-1.2-1.4-1.7-3.3-2.1-5.1c-0.8-4.1-0.8-8.5-0.7-12.7c0.2-5.1,0.7-10.1,1.8-15.1
				c1-4.7,1.8-11,7.5-12c1.5-0.3,4.5-0.7,5.4,1c0.3,0.7,0.2,1.4,0.1,2.1c-0.3,2.4-1,4.7-1.6,7c-1.1,4.5-2,9-2.4,13.6
				c0,0.3,0.9,0.1,1-0.1c2.4-6.1,5.3-11.9,9.7-16.8c2.2-2.4,4.7-4.6,7.8-5.9c3.9-1.7,9-1.4,9.9,3.5c0.5,2.5-0.2,5.1-0.7,7.6
				c-0.3,1.6-0.8,1.6-2.2,2.4C689.4,501.2,681.3,505.1,681.3,505c0-0.3-1-0.1-1,0.2c0.1,1.3,5-1.3,5.4-1.5c1.7-0.8,3.4-1.8,5.1-2.7
				c0.6-0.4,1.8-0.7,2.3-1.3c0.6-0.8,0.7-3.2,0.8-4.2c0.2-1.1,0.3-2.3,0.3-3.5c-0.1-2.6-1.2-5.1-3.8-5.9c-4.5-1.4-9.7,1.3-13,4.2
				c-6,5.2-9.8,12.4-12.6,19.7c0.3,0,0.7-0.1,1-0.1c0.5-5.5,1.7-10.8,3-16.1c0.5-1.9,2.3-6.5-0.2-7.7c-2.4-1.1-6.8-0.3-8.9,1.1
				c-3.5,2.3-4.2,7.8-5,11.6c-1.1,5.2-1.7,10.4-1.8,15.7c-0.1,4.6-0.2,9.8,1.4,14.2c2.1,5.9,10.1,6.2,12.4,0.4
				c1.1-2.7,1.5-5.5,2.4-8.3c0.9-3.1,2.1-6.1,3.5-9c1.1-2.3,2.2-4.6,3.7-6.7c0.5-0.8,1.9-3.2,3-3.4c2-0.3,1.3,2.4,1.2,3.4
				C680.3,505.4,681.3,505.4,681.3,505z"/>
		</g>
	</g>
</g>
<g>
	<g>
		<path d="M808,380.2c0.6,0,0.6-0.4,0-0.4C807.4,379.8,807.4,380.2,808,380.2L808,380.2z"/>
	</g>
</g>
<ellipse class="st0" cx="473.5" cy="452.5" rx="244.5" ry="184.5"/>
<g>
	<g>
		<path d="M368.4,570.1c-6,8.5-3.5,19.2,3.6,26.2c8.6,8.4,22.3,9.4,33.6,8.7c24.1-1.6,49.6-9.4,68.9-24.3
			c9.9-7.7,16.3-17.6,24.3-27.1c4-4.6,8.6-8.7,14.8-10.2c6.5-1.5,14.1-0.7,20.2,1.7c13.3,5.3,13.2,20.7,6.5,31.2
			c-7.3,11.3-20.1,17.1-33.1,18.2c-25.8,2.3-68.9-7.4-67.1-41c0.1-2.2-11.4-0.7-11.6,3.1c-1.6,30.2,33.4,41.5,57.5,43.1
			c24.5,1.7,57.1-4.7,68.1-29.8c4.9-11.1,2.3-24-9.4-29.2c-12.1-5.4-27.9-4.3-39.9,0.8c-12.6,5.4-19,16.3-27.4,26.4
			c-8.6,10.5-20.1,18.4-32.6,23.5c-13.9,5.7-31,9.9-46,7.7c-7.4-1.1-14.7-4.4-18.9-10.9c-3.7-5.6-5-13.2-0.9-19
			C381.5,566.1,370.2,567.6,368.4,570.1L368.4,570.1z"/>
	</g>
</g>
<path class="st1" d="M447.5,543.5"/>
</svg>
