<?xml version="1.0" encoding="utf-8"?>
<!-- Generator: Adobe Illustrator 22.1.0, SVG Export Plug-In . SVG Version: 6.00 Build 0)  -->
<svg version="1.1" id="Calque_1" xmlns="http://www.w3.org/2000/svg" xmlns:xlink="http://www.w3.org/1999/xlink" x="0px" y="0px"
	 viewBox="0 0 1280 1024" style="enable-background:new 0 0 1280 1024;" xml:space="preserve">
<style type="text/css">
	.st0{fill:#8D5596;stroke:#000000;stroke-width:11;stroke-miterlimit:10;}
	.st1{fill:none;stroke:#FFFFFF;stroke-width:5;stroke-miterlimit:10;}
	.st2{fill:#FFE6C7;}
</style>
<g>
	<g>
		<path d="M979,405.2c0.6,0,0.6-0.4,0-0.4C978.4,404.8,978.4,405.2,979,405.2L979,405.2z"/>
	</g>
</g>
<ellipse class="st0" cx="644.5" cy="477.5" rx="244.5" ry="184.5"/>
<path class="st1" d="M618.5,568.5"/>
<g>
	<path class="st2" d="M531.5,419.7c0.7,0.7,1,1.5,1,2.6c0,1.7-0.5,3.3-1.5,4.6c-1,1.3-2.6,2-4.9,2.1c-5.3,0.1-10.1-0.3-14.2-1.2
		c-4.7,9.9-10.5,18.2-17.2,24.8c-6.7,6.6-13.4,9.9-20.1,9.9c-6.9,0-12.1-4-15.5-12.1c-3.4-8.1-5.1-19-5.1-32.7
		c0-11.7,0.8-22.3,2.5-31.6c0.6-3.5,1.5-5.8,2.6-7.1c1.1-1.2,3-1.8,5.6-1.8c4.4,0,6.6,1.9,6.6,5.7c0,0.4-0.1,1.1-0.2,2.2
		c-2,12-3,22.9-3,32.6c0,10.2,0.9,17.9,2.6,23.3c1.7,5.3,4.3,7.9,7.6,7.9c3.5,0,7.2-2.4,11.3-7.2c4.1-4.8,7.8-10.8,11.2-18.1
		c-4.1-2.5-7.1-5.8-9.2-9.9c-2.1-4-3.1-8.7-3.1-14c0-5.3,0.8-9.7,2.5-13.3c1.6-3.6,3.9-6.4,6.7-8.2c2.8-1.8,6-2.7,9.4-2.7
		c4.3,0,7.6,1.5,10.1,4.6c2.5,3.1,3.8,7.3,3.8,12.6c0,7.7-1.7,16-5,25.1c3.5,0.6,7.6,0.9,12.1,0.9
		C529.6,418.7,530.8,419,531.5,419.7z M504.9,413.5c2.6-7.5,3.9-13.6,3.9-18.5c0-2.8-0.4-4.9-1.1-6.1c-0.7-1.3-1.7-2-3-2
		c-1.8,0-3.3,1-4.4,3.1c-1.1,2.1-1.7,5.1-1.7,9C498.6,405.5,500.7,410.3,504.9,413.5z"/>
	<path class="st2" d="M525.7,457.8c-2-3.1-2.9-7.1-2.9-12.2c0-3,0.4-6.9,1.1-11.6c0.8-4.7,1.8-9.1,2.9-13.1c0.6-2.1,1.4-3.6,2.4-4.4
		c1-0.8,2.6-1.2,4.8-1.2c3.4,0,5.1,1.1,5.1,3.4c0,1.7-0.6,5.5-1.9,11.6c-1.6,7.3-2.4,12.3-2.4,14.9c0,2,0.3,3.5,0.8,4.6
		c0.5,1.1,1.4,1.6,2.7,1.6c1.2,0,2.7-0.8,4.5-2.5c1.8-1.7,4.2-4.3,7.2-7.9c0.8-0.9,1.7-1.4,2.7-1.4c0.9,0,1.5,0.4,2,1.2
		c0.5,0.8,0.8,1.9,0.8,3.3c0,2.7-0.6,4.7-1.9,6.2c-6.6,8.1-12.8,12.1-18.5,12.1C530.8,462.4,527.6,460.8,525.7,457.8z M529.6,406.7
		c-1.4-1.3-2.1-3.1-2.1-5.5c0-2.3,0.9-4.3,2.8-5.9c1.8-1.6,4.1-2.3,6.9-2.3c2.5,0,4.5,0.6,6,1.8c1.5,1.2,2.3,2.9,2.3,5.1
		c0,2.7-0.9,4.8-2.6,6.4c-1.7,1.6-4,2.3-6.9,2.3C533.1,408.7,531,408,529.6,406.7z"/>
	<path class="st2" d="M594.1,440.8c0.5,0.8,0.8,1.9,0.8,3.3c0,2.7-0.6,4.7-1.9,6.2c-2.5,3-6,5.8-10.4,8.3c-4.5,2.5-9.3,3.8-14.5,3.8
		c-7,0-12.4-1.9-16.3-5.7c-3.9-3.8-5.8-9-5.8-15.6c0-4.6,1-8.9,2.9-12.9c1.9-4,4.6-7.1,8-9.5c3.4-2.3,7.3-3.5,11.6-3.5
		c3.9,0,7,1.1,9.3,3.5c2.3,2.3,3.5,5.4,3.5,9.4c0,4.6-1.7,8.5-5,11.8c-3.3,3.3-8.9,5.9-16.8,7.9c1.7,3.1,4.8,4.6,9.5,4.6
		c3,0,6.4-1,10.3-3.1c3.8-2.1,7.2-4.9,10-8.3c0.8-0.9,1.7-1.4,2.7-1.4C592.9,439.6,593.6,440,594.1,440.8z M560.6,429.4
		c-1.7,2.9-2.6,6.3-2.6,10.4v0.2c3.9-0.9,7-2.3,9.3-4.2c2.3-1.9,3.4-4,3.4-6.5c0-1.3-0.4-2.3-1.1-3c-0.7-0.8-1.6-1.1-2.8-1.1
		C564.3,425.1,562.3,426.5,560.6,429.4z"/>
	<path class="st2" d="M588.4,458.4c-1-2.7-1.5-6.9-1.5-12.8c0-8.7,1.2-16.9,3.7-24.7c0.6-1.9,1.6-3.4,3-4.3c1.4-0.9,3.3-1.4,5.8-1.4
		c1.3,0,2.3,0.2,2.8,0.5c0.5,0.3,0.8,1,0.8,1.9c0,1.1-0.5,3.5-1.5,7.2c-0.7,2.7-1.2,5-1.6,7c-0.4,2-0.7,4.5-1,7.4
		c2.2-5.7,4.7-10.4,7.4-14s5.4-6.2,8.1-7.7c2.6-1.5,5.1-2.3,7.3-2.3c4.3,0,6.5,2.2,6.5,6.5c0,2.6-0.7,7.3-2.2,14.1
		c-1.3,5.8-1.9,9.6-1.9,11.5c0,2.7,1,4,2.9,4c1.3,0,2.9-0.8,4.8-2.5c1.8-1.6,4.3-4.3,7.3-7.9c0.8-0.9,1.7-1.4,2.7-1.4
		c0.9,0,1.6,0.4,2.1,1.2c0.5,0.8,0.8,1.9,0.8,3.3c0,2.7-0.6,4.7-1.9,6.2c-2.9,3.5-5.9,6.4-9.3,8.7c-3.3,2.3-7.1,3.4-11.3,3.4
		c-3.4,0-6-1-7.7-3c-1.7-2-2.6-4.8-2.6-8.5c0-1.9,0.5-5.2,1.4-10c0.9-4.2,1.3-7.1,1.3-8.7c0-1.1-0.4-1.6-1.1-1.6
		c-0.9,0-2.1,1.1-3.7,3.3c-1.6,2.2-3.2,5.2-4.8,8.9c-1.6,3.7-2.9,7.5-3.9,11.6c-0.7,3.1-1.6,5.3-2.6,6.4s-2.5,1.6-4.5,1.6
		C591.3,462.4,589.5,461,588.4,458.4z"/>
	<path class="st2" d="M646.9,462.2c-1.8-1.6-2.8-3.4-2.8-5.4c0-1.7,0.6-3.2,1.9-4.5c1.3-1.3,3.1-1.9,5.6-1.9c0.9,0,1.9,0.1,3,0.3
		c1.2,0.2,2,0.3,2.7,0.4c-0.1-1.7-0.5-3.4-1.2-4.9c-0.7-1.5-1.6-3-2.7-4.5c-1.1-1.4-2.1-2.7-3-3.8c-2.1,3.9-4.1,7.2-6.1,9.8
		c-2,2.6-4.3,5.1-6.7,7.4c-1.2,1.2-2.5,1.8-3.8,1.8c-1.1,0-1.9-0.4-2.6-1.1c-0.7-0.8-1-1.7-1-2.9c0-1.3,0.5-2.6,1.4-3.7l1.3-1.6
		c3.7-4.5,6.4-8.3,8.3-11.2c1.2-1.9,2.4-4.2,3.6-6.9c1.2-2.7,2.9-6.3,4.9-10.9c1.3-2.9,3.9-4.4,7.9-4.4c1.9,0,3.2,0.2,3.9,0.5
		c0.7,0.3,1.1,0.9,1.1,1.6c0,0.4-0.1,1-0.4,1.9c-0.3,0.9-0.6,1.7-1.1,2.6c-1.2,2.4-1.8,4.4-1.8,6.1c0,1,0.3,2.1,1,3.3
		c0.7,1.2,1.8,2.7,3.3,4.5c2.1,2.8,3.8,5.2,4.9,7.2c1.1,2,1.6,4.1,1.6,6.4c0,2.8-0.6,5.5-2,8c-1.3,2.5-3.1,4.5-5.4,6
		c-2.3,1.5-5,2.3-8,2.3C651.4,464.6,648.8,463.8,646.9,462.2z"/>
</g>
<g>
	<g>
		<g>
			<path class="st2" d="M520.3,554.4c-5.3-3.4-8-8.5-8-15.5c0-3.7,0.6-6.5,1.9-8.4c1.3-1.9,3.1-2.9,5.6-2.9c1.8,0,3.3,0.5,4.4,1.4
				c1.1,0.9,1.7,2.1,1.7,3.6c0,1.3-0.1,2.5-0.3,3.5c0,0.3-0.1,0.7-0.2,1.4c-0.1,0.7-0.1,1.4-0.1,2.1c0,3,1.5,5.2,4.6,6.7
				c3,1.5,7.3,2.2,12.8,2.2c5.7,0,10.1-1,13.3-3.1c3.2-2,4.8-4.9,4.8-8.5c0-2.3-0.7-4.2-2.2-5.8c-1.5-1.6-3.3-3-5.5-4.1
				c-2.2-1.1-5.3-2.4-9.3-4c-5.1-2-9.3-3.9-12.5-5.7c-3.2-1.8-6-4.3-8.3-7.3c-2.3-3.1-3.5-7-3.5-11.5c0-4.8,1.3-9.1,3.9-12.8
				c2.6-3.7,6.3-6.6,11.1-8.7c4.8-2.1,10.5-3.1,17-3.1c4.9,0,9.3,0.7,13.4,2.1c4.1,1.4,7.3,3.6,9.8,6.5c2.4,2.9,3.6,6.5,3.6,10.8
				c0,4.2-0.6,7.4-1.9,9.5c-1.3,2.1-3.1,3.2-5.6,3.2c-1.7,0-3.2-0.5-4.3-1.6c-1.2-1.1-1.8-2.3-1.8-3.8c0-1.3,0.1-2.4,0.3-3.5
				c0.2-2,0.3-3.3,0.3-3.8c0-2.8-1.4-4.9-4.1-6.4c-2.7-1.5-6.1-2.2-10.2-2.2c-5.7,0-10.1,1-13.1,3.1c-3,2.1-4.6,5.1-4.6,8.9
				c0,2.5,0.8,4.7,2.4,6.5c1.6,1.8,3.5,3.3,5.9,4.5c2.3,1.2,5.6,2.6,9.8,4.3c5.1,2.1,9.1,3.9,12.2,5.6c3.1,1.7,5.7,3.9,7.9,6.8
				c2.2,2.9,3.3,6.4,3.3,10.6c0,7.9-3,13.9-9,18.2c-6,4.2-13.9,6.3-23.9,6.3C532.8,559.4,525.7,557.7,520.3,554.4z"/>
		</g>
		<g>
			<path class="st2" d="M600.8,592c-2-4.4-2.9-9.7-2.9-15.9c0-7.8,0.9-15.5,2.6-23.1c-2.3,3.5-5.2,5.2-8.9,5.2
				c-3.7,0-6.7-1.5-9.1-4.6c-2.4-3.1-3.6-7-3.6-11.9c0-5.3,1.3-10.3,3.8-15c2.5-4.7,5.8-8.5,10-11.5c4.2-2.9,8.6-4.3,13.4-4.3
				c1.6,0,2.8,0.5,3.7,1.6c0.6-2.1,1.5-3.6,2.7-4.3c1.2-0.7,2.9-1.1,5-1.1c2.3,0,3.8,0.3,4.5,1c0.8,0.7,1.1,1.6,1.1,2.9
				c0,0.8-0.4,2.7-1.3,5.5c-0.8,2.9-1.4,4.8-1.6,5.8c-1.1,3.7-2.2,7.9-3.5,12.4c-1.2,4.5-2.2,8.7-3,12.4
				c-2.1,10.7-3.2,20.1-3.2,28.3c0,3.1,0.3,5.7,0.8,7.8C611.6,585.3,602.7,596.3,600.8,592z M598.9,545.2c1.4-1.9,2.4-4.2,3-6.8
				l4.3-18.2c-2.9,0.1-5.6,1.1-8,3.1c-2.4,2-4.4,4.7-5.8,8c-1.4,3.3-2.1,6.8-2.1,10.5c0,2.1,0.4,3.7,1.1,4.8
				c0.8,1.1,1.8,1.7,3.1,1.7C596.1,548,597.5,547.1,598.9,545.2z"/>
		</g>
		<g>
			<path class="st2" d="M623.9,554c-1.9-2.8-2.9-6.2-2.9-10.3c0-5,0.3-9.6,1-13.8c0.7-4.2,1.8-8.6,3.3-13.3c0.7-2,1.6-3.4,2.8-4.3
				c1.2-0.9,3.1-1.3,5.7-1.3c1.5,0,2.5,0.2,3,0.7c0.6,0.5,0.9,1.2,0.9,2.1c0,0.5-0.4,2.3-1.1,5.4c-0.7,2.5-1.2,4.7-1.6,6.7
				c-1.3,7-2,11.7-2,14c0,1.4,0.2,2.4,0.5,3c0.3,0.6,0.9,0.8,1.6,0.8c1,0,2.3-1,3.8-3s3.1-5,4.8-9.1c1.7-4.1,3.3-9.1,4.9-15
				c0.5-2,1.4-3.4,2.5-4.3c1.1-0.9,2.8-1.3,4.9-1.3c1.5,0,2.6,0.2,3.2,0.5c0.6,0.4,0.9,1,0.9,2c0,1.7-0.8,6.2-2.5,13.7
				c-1.9,8.5-2.8,13.8-2.8,15.8c0,1.3,0.3,2.3,0.8,3c0.5,0.7,1.2,1,2.1,1c1.3,0,2.9-0.8,4.8-2.5c1.8-1.6,4.3-4.3,7.4-8
				c0.8-0.9,1.7-1.4,2.7-1.4c0.9,0,1.6,0.4,2.1,1.2c0.5,0.8,0.8,1.9,0.8,3.3c0,2.7-0.6,4.7-1.9,6.2c-2.9,3.5-6,6.4-9.3,8.7
				c-3.3,2.3-7.1,3.4-11.3,3.4c-3.2,0-5.6-1.2-7.1-3.7c-1.5-2.5-2.3-5.9-2.3-10.4c-1.1,4.5-2.8,8-5.1,10.4c-2.3,2.4-4.7,3.7-7.3,3.7
				C628.2,558.1,625.8,556.7,623.9,554z"/>
		</g>
		<g>
			<path class="st2" d="M669.6,553.6c-2.5-3-3.7-6.9-3.7-11.8c0-5.3,1.2-10.4,3.7-15.2c2.5-4.8,5.8-8.6,9.8-11.5
				c4.1-2.9,8.5-4.3,13.1-4.3c1.5,0,2.4,0.3,2.9,0.8c0.5,0.6,0.9,1.6,1.3,3c1.4-0.3,2.9-0.4,4.4-0.4c3.3,0,4.9,1.2,4.9,3.5
				c0,1.4-0.5,4.7-1.5,10c-1.5,7.7-2.3,13-2.3,16c0,1,0.3,1.8,0.8,2.4c0.5,0.6,1.2,0.9,2,0.9c1.3,0,2.8-0.8,4.6-2.5
				c1.8-1.6,4.2-4.3,7.3-8c0.8-0.9,1.7-1.4,2.7-1.4c0.9,0,1.5,0.4,2,1.2c0.5,0.8,0.8,1.9,0.8,3.3c0,2.7-0.6,4.7-1.9,6.2
				c-2.7,3.4-5.6,6.3-8.7,8.6c-3.1,2.3-6,3.5-8.9,3.5c-2.2,0-4.2-0.8-6-2.3c-1.8-1.5-3.2-3.5-4.1-6.2c-3.5,5.6-7.8,8.4-13.1,8.4
				C675.4,558.1,672.1,556.6,669.6,553.6z M687.3,545.4c1.3-1.7,2.3-4,2.9-6.9l3.7-18.4c-2.8,0.1-5.4,1.1-7.8,3.2
				c-2.4,2-4.3,4.7-5.6,8c-1.4,3.3-2.1,6.9-2.1,10.6c0,2.1,0.4,3.6,1.3,4.6c0.8,1,2,1.5,3.5,1.5C684.6,548,686,547.2,687.3,545.4z"
				/>
		</g>
		<g>
			<path class="st2" d="M792.2,536.5c0.5,0.8,0.8,1.9,0.8,3.3c0,2.7-0.6,4.7-1.9,6.2c-2.9,3.5-6,6.4-9.4,8.7
				c-3.4,2.3-7.3,3.4-11.7,3.4c-8.1,0-13.8-3.4-17-10.2c-1.7,2.8-4,5.2-6.9,7.2c-2.9,2-5.9,3-9.2,3c-6.3,0-11-2.6-13.9-7.8
				c-3-5.2-4.5-12.2-4.5-21c0-3.3,0.2-6.9,0.5-10.9h-4.1c-2,0-3.4-0.4-4-1.1c-0.7-0.7-1.1-1.9-1.1-3.5c0-3.7,1.5-5.6,4.5-5.6h6.1
				c1.3-7.1,3-13.5,5.3-19.2c2.3-5.7,5-10.3,8.2-13.7c3.2-3.4,6.7-5.1,10.4-5.1c2.8,0,5,1.2,6.6,3.7c1.6,2.5,2.4,5.6,2.4,9.3
				c0,9.4-3.6,17.7-10.9,25h9.1c1.3-7.1,3-13.5,5.3-19.2c2.3-5.7,5-10.3,8.2-13.7c3.2-3.4,6.7-5.1,10.4-5.1c2.8,0,5,1.2,6.6,3.7
				c1.6,2.5,2.4,5.6,2.4,9.3c0,9.4-3.6,17.7-10.9,25h9.1c1.1,0,1.8,0.2,2.3,0.7c0.5,0.5,0.7,1.3,0.7,2.6c0,4.6-3.8,6.9-11.3,6.9
				h-12.1c-0.2,3.2-0.3,6.5-0.3,9.8c0,6.9,0.8,11.8,2.5,14.6c1.6,2.8,4.2,4.2,7.8,4.2c2.9,0,5.4-0.9,7.6-2.6
				c2.2-1.7,4.8-4.3,7.8-7.8c0.8-0.9,1.7-1.4,2.7-1.4C791,535.3,791.7,535.7,792.2,536.5z M744.9,544.3c2-1.9,3.7-4.2,5.1-6.9
				c-0.3-2.1-0.5-4.7-0.5-8c0-3.3,0.2-6.9,0.5-10.9h-19c-0.2,3.2-0.3,6.5-0.3,9.8c0,6.7,0.7,11.5,2.2,14.5c1.4,2.9,3.4,4.3,6,4.3
				C740.9,547.1,742.9,546.2,744.9,544.3z M738.2,483.7c-1.2,2.5-2.4,6-3.5,10.4c-1.1,4.4-2,9.3-2.8,14.8c3.9-3.4,6.9-7.2,8.9-11.5
				c2-4.2,2.9-8.1,2.9-11.5c0-3.9-0.7-5.9-2.2-5.9C740.5,479.9,739.4,481.2,738.2,483.7z M769.3,483.7c-1.2,2.5-2.4,6-3.5,10.4
				c-1.1,4.4-2,9.3-2.8,14.8c3.9-3.4,6.9-7.2,8.9-11.5c2-4.2,2.9-8.1,2.9-11.5c0-3.9-0.7-5.9-2.2-5.9
				C771.6,479.9,770.5,481.2,769.3,483.7z"/>
		</g>
		<g>
			<path class="st2" d="M831.5,536.5c0.5,0.8,0.8,1.9,0.8,3.3c0,2.7-0.6,4.7-1.9,6.2c-2.5,3-5.9,5.8-10.4,8.3
				c-4.5,2.5-9.3,3.8-14.5,3.8c-7,0-12.4-1.9-16.3-5.7c-3.9-3.8-5.8-9-5.8-15.6c0-4.6,1-8.9,2.9-12.9c1.9-4,4.6-7.1,8-9.4
				c3.4-2.3,7.3-3.5,11.6-3.5c3.9,0,7,1.1,9.3,3.4c2.3,2.3,3.5,5.4,3.5,9.4c0,4.6-1.7,8.5-4.9,11.8c-3.3,3.3-8.9,5.9-16.8,7.9
				c1.7,3.1,4.8,4.6,9.5,4.6c3,0,6.4-1,10.3-3.2c3.8-2.1,7.2-4.8,9.9-8.3c0.8-0.9,1.7-1.4,2.7-1.4
				C830.3,535.3,831,535.7,831.5,536.5z M798,525.1c-1.7,2.9-2.6,6.3-2.6,10.4v0.2c3.9-0.9,7-2.3,9.3-4.2c2.3-1.9,3.4-4,3.4-6.5
				c0-1.3-0.3-2.3-1.1-3.1c-0.7-0.8-1.6-1.1-2.8-1.1C801.8,520.8,799.7,522.3,798,525.1z"/>
		</g>
		<g>
			<path class="st2" d="M851.8,530.1c0.1-1.1,0.2-1.8,0.2-2.2c0-0.5-0.1-0.9-0.4-1.2c-0.2-0.3-0.5-0.4-0.8-0.4
				c-0.9,0-2.2,1.1-3.8,3.3c-1.6,2.2-3.2,5.2-4.8,8.9c-1.6,3.7-2.9,7.5-3.9,11.6c-0.7,3.2-1.6,5.3-2.5,6.4c-0.9,1.1-2.5,1.6-4.6,1.6
				c-2.5,0-4.3-1.3-5.4-4c-1-2.7-1.5-6.9-1.5-12.8c0-8.7,1.2-16.9,3.7-24.7c0.6-1.9,1.6-3.3,3-4.3c1.4-0.9,3.3-1.3,5.8-1.3
				c1.3,0,2.3,0.2,2.8,0.5c0.5,0.3,0.8,1,0.8,1.9c0,1.1-0.5,3.5-1.5,7.2c-0.7,2.7-1.2,5-1.6,7c-0.4,2-0.7,4.5-1,7.4
				c2.2-5.7,4.7-10.4,7.4-14c2.7-3.6,5.4-6.2,8-7.7c2.6-1.5,5-2.3,7.1-2.3c1.9,0,3.4,0.5,4.4,1.6c1,1.1,1.6,2.7,1.6,4.9
				c0,1.3-0.4,3.7-1.1,7.2C863.6,524.7,851.7,531.6,851.8,530.1z"/>
		</g>
	</g>
	<g>
		<g>
			<path class="st2" d="M539.4,595.1c-6,8.5-3.5,19.2,3.6,26.2c8.6,8.4,22.3,9.4,33.6,8.7c24.1-1.6,49.6-9.4,68.9-24.3
				c9.9-7.7,16.3-17.6,24.3-27.1c4-4.6,8.6-8.7,14.8-10.2c6.5-1.5,14.1-0.7,20.2,1.7c13.3,5.3,13.2,20.7,6.5,31.2
				c-7.3,11.3-20.1,17.1-33.1,18.2c-25.8,2.3-68.9-7.4-67.1-41c0.1-2.2-11.4-0.7-11.6,3.1c-1.6,30.2,33.4,41.5,57.5,43.1
				c24.5,1.7,57.1-4.7,68.1-29.8c4.9-11.1,2.3-24-9.4-29.2c-12.1-5.4-27.9-4.3-39.9,0.8c-12.6,5.4-19,16.3-27.4,26.4
				c-8.6,10.5-20.1,18.4-32.6,23.5c-13.9,5.7-31,9.9-46,7.7c-7.4-1.1-14.7-4.4-18.9-10.9c-3.7-5.6-5-13.2-0.9-19
				C552.5,591.1,541.2,592.6,539.4,595.1L539.4,595.1z"/>
		</g>
	</g>
</g>
</svg>
